<mxfile host="63782dc6-829a-4467-8604-1b9ad98d1953" modified="2020-09-17T08:17:02.785Z" agent="5.0 (Windows NT 10.0; Win64; x64) AppleWebKit/537.36 (KHTML, like Gecko) Code/1.49.0 Chrome/83.0.4103.122 Electron/9.2.1 Safari/537.36" etag="rK-oOGoYmxOtB6RssgOT" version="13.1.3" pages="2">
    <diagram id="6hGFLwfOUW9BJ-s0fimq" name="Page-1">
        <mxGraphModel dx="801" dy="6480" grid="0" gridSize="10" guides="1" tooltips="1" connect="1" arrows="1" fold="1" page="1" pageScale="1" pageWidth="800" pageHeight="2000" background="#808080" math="0" shadow="0">
            <root>
                <mxCell id="0"/>
                <mxCell id="1" parent="0"/>
                <mxCell id="yA5RwDx7yH4Nu-wL2TZ7-69" value="" style="rounded=1;whiteSpace=wrap;html=1;strokeColor=#33FF33;dashed=1;strokeWidth=3;fillColor=#808080;arcSize=12;" parent="1" vertex="1">
                    <mxGeometry x="325" y="-4713" width="240" height="93" as="geometry"/>
                </mxCell>
                <mxCell id="yA5RwDx7yH4Nu-wL2TZ7-67" value="" style="rounded=1;whiteSpace=wrap;html=1;strokeColor=#33FF33;dashed=1;strokeWidth=3;fillColor=#808080;arcSize=12;" parent="1" vertex="1">
                    <mxGeometry x="194" y="-4851" width="486" height="93" as="geometry"/>
                </mxCell>
                <mxCell id="yA5RwDx7yH4Nu-wL2TZ7-65" value="" style="rounded=1;whiteSpace=wrap;html=1;strokeColor=#33FF33;dashed=1;strokeWidth=3;fillColor=#808080;arcSize=12;" parent="1" vertex="1">
                    <mxGeometry x="189" y="-5003" width="486" height="93" as="geometry"/>
                </mxCell>
                <mxCell id="yA5RwDx7yH4Nu-wL2TZ7-64" value="" style="rounded=1;whiteSpace=wrap;html=1;strokeColor=#33FF33;dashed=1;strokeWidth=3;fillColor=#808080;arcSize=12;" parent="1" vertex="1">
                    <mxGeometry x="356.5" y="-5121.5" width="177" height="93" as="geometry"/>
                </mxCell>
                <mxCell id="56" value="依赖/使用" style="text;align=center;fontStyle=1;verticalAlign=middle;spacingLeft=3;spacingRight=3;strokeColor=none;rotatable=0;points=[[0,0.5],[1,0.5]];portConstraint=eastwest;dashed=1;" parent="1" vertex="1">
                    <mxGeometry x="210" y="-4900" width="80" height="26" as="geometry"/>
                </mxCell>
                <mxCell id="62" value="" style="endArrow=open;dashed=1;html=1;endFill=0;strokeWidth=2;strokeColor=#FFFF66;" parent="1" edge="1">
                    <mxGeometry width="50" height="50" relative="1" as="geometry">
                        <mxPoint x="280.5" y="-4857" as="sourcePoint"/>
                        <mxPoint x="280.5" y="-4918" as="targetPoint"/>
                    </mxGeometry>
                </mxCell>
                <mxCell id="64" value="" style="endArrow=block;dashed=1;endFill=0;endSize=12;html=1;strokeWidth=2;strokeColor=#FFFF66;" parent="1" edge="1">
                    <mxGeometry width="160" relative="1" as="geometry">
                        <mxPoint x="279" y="-4764" as="sourcePoint"/>
                        <mxPoint x="321" y="-4665" as="targetPoint"/>
                    </mxGeometry>
                </mxCell>
                <mxCell id="BlqpgNSsdKgZDyw_6oKY-81" value="" style="endArrow=block;dashed=1;endFill=0;endSize=12;html=1;strokeWidth=2;exitX=0.455;exitY=1.062;exitDx=0;exitDy=0;exitPerimeter=0;strokeColor=#FFFF66;" parent="1" edge="1">
                    <mxGeometry width="160" relative="1" as="geometry">
                        <mxPoint x="601.9000000000001" y="-4759.999999999999" as="sourcePoint"/>
                        <mxPoint x="557" y="-4665" as="targetPoint"/>
                    </mxGeometry>
                </mxCell>
                <mxCell id="X_C08-fUslZUKMXBAiZJ-90" value="" style="endArrow=block;dashed=1;endFill=0;endSize=12;html=1;strokeWidth=2;strokeColor=#FFFF66;" parent="1" edge="1">
                    <mxGeometry width="160" relative="1" as="geometry">
                        <mxPoint x="588.5" y="-4991" as="sourcePoint"/>
                        <mxPoint x="525.5" y="-5061" as="targetPoint"/>
                    </mxGeometry>
                </mxCell>
                <mxCell id="X_C08-fUslZUKMXBAiZJ-91" value="" style="endArrow=open;dashed=1;html=1;endFill=0;strokeWidth=2;strokeColor=#FFFF66;" parent="1" edge="1">
                    <mxGeometry width="50" height="50" relative="1" as="geometry">
                        <mxPoint x="592" y="-4846" as="sourcePoint"/>
                        <mxPoint x="592" y="-4907" as="targetPoint"/>
                    </mxGeometry>
                </mxCell>
                <mxCell id="X_C08-fUslZUKMXBAiZJ-93" value="实现" style="text;align=center;fontStyle=1;verticalAlign=middle;spacingLeft=3;spacingRight=3;strokeColor=none;rotatable=0;points=[[0,0.5],[1,0.5]];portConstraint=eastwest;dashed=1;" parent="1" vertex="1">
                    <mxGeometry x="584" y="-4737" width="80" height="26" as="geometry"/>
                </mxCell>
                <mxCell id="X_C08-fUslZUKMXBAiZJ-94" value="实现" style="text;align=center;fontStyle=1;verticalAlign=middle;spacingLeft=3;spacingRight=3;strokeColor=none;rotatable=0;points=[[0,0.5],[1,0.5]];portConstraint=eastwest;dashed=1;" parent="1" vertex="1">
                    <mxGeometry x="245.5" y="-5057" width="80" height="26" as="geometry"/>
                </mxCell>
                <mxCell id="X_C08-fUslZUKMXBAiZJ-95" value="&lt;span style=&quot;color: rgb(64 , 64 , 64) ; font-family: &amp;#34;lato&amp;#34; , , &amp;#34;helvetica neue&amp;#34; , &amp;#34;arial&amp;#34; , sans-serif ; font-size: 16px ; font-style: normal ; font-weight: 400 ; letter-spacing: normal ; text-align: left ; text-indent: 0px ; text-transform: none ; word-spacing: 0px ; background-color: rgb(252 , 252 , 252) ; float: none ; display: inline&quot;&gt;abstruct product:抽象产品&lt;/span&gt;" style="text;whiteSpace=wrap;html=1;" parent="1" vertex="1">
                    <mxGeometry x="331.5" y="-5155" width="216" height="29" as="geometry"/>
                </mxCell>
                <mxCell id="X_C08-fUslZUKMXBAiZJ-74" value="struct&#10;Hua Wei Phone" style="swimlane;fontStyle=1;align=center;verticalAlign=top;childLayout=stackLayout;horizontal=1;startSize=39;horizontalStack=0;resizeParent=1;resizeParentMax=0;resizeLast=0;collapsible=1;marginBottom=0;fillColor=#333333;" parent="1" vertex="1">
                    <mxGeometry x="216.5" y="-4995" width="134" height="70" as="geometry"/>
                </mxCell>
                <mxCell id="X_C08-fUslZUKMXBAiZJ-89" value="" style="endArrow=block;dashed=1;endFill=0;endSize=12;html=1;strokeWidth=2;strokeColor=#FFFF66;" parent="X_C08-fUslZUKMXBAiZJ-74" edge="1">
                    <mxGeometry width="160" relative="1" as="geometry">
                        <mxPoint x="69" y="-11" as="sourcePoint"/>
                        <mxPoint x="153" y="-76" as="targetPoint"/>
                    </mxGeometry>
                </mxCell>
                <mxCell id="X_C08-fUslZUKMXBAiZJ-75" value="" style="text;strokeColor=#FFFFFF;fillColor=#333333;align=left;verticalAlign=top;spacingLeft=4;spacingRight=4;overflow=hidden;rotatable=0;points=[[0,0.5],[1,0.5]];portConstraint=eastwest;" parent="X_C08-fUslZUKMXBAiZJ-74" vertex="1">
                    <mxGeometry y="39" width="134" height="4" as="geometry"/>
                </mxCell>
                <mxCell id="X_C08-fUslZUKMXBAiZJ-76" value="+call()" style="text;strokeColor=#FFFFFF;fillColor=#333333;align=left;verticalAlign=top;spacingLeft=4;spacingRight=4;overflow=hidden;rotatable=0;points=[[0,0.5],[1,0.5]];portConstraint=eastwest;strokeWidth=1;" parent="X_C08-fUslZUKMXBAiZJ-74" vertex="1">
                    <mxGeometry y="43" width="134" height="27" as="geometry"/>
                </mxCell>
                <mxCell id="c7y8__zd0Tl0xnud9DOf-77" value="interface&#10;Phone" style="swimlane;fontStyle=1;align=center;verticalAlign=top;childLayout=stackLayout;horizontal=1;startSize=39;horizontalStack=0;resizeParent=1;resizeParentMax=0;resizeLast=0;collapsible=1;marginBottom=0;fillColor=#333333;" parent="1" vertex="1">
                    <mxGeometry x="378.5" y="-5110" width="134" height="70" as="geometry"/>
                </mxCell>
                <mxCell id="c7y8__zd0Tl0xnud9DOf-78" value="" style="text;strokeColor=#FFFFFF;fillColor=#333333;align=left;verticalAlign=top;spacingLeft=4;spacingRight=4;overflow=hidden;rotatable=0;points=[[0,0.5],[1,0.5]];portConstraint=eastwest;" parent="c7y8__zd0Tl0xnud9DOf-77" vertex="1">
                    <mxGeometry y="39" width="134" height="4" as="geometry"/>
                </mxCell>
                <mxCell id="c7y8__zd0Tl0xnud9DOf-79" value="+call()" style="text;strokeColor=#FFFFFF;fillColor=#333333;align=left;verticalAlign=top;spacingLeft=4;spacingRight=4;overflow=hidden;rotatable=0;points=[[0,0.5],[1,0.5]];portConstraint=eastwest;strokeWidth=1;" parent="c7y8__zd0Tl0xnud9DOf-77" vertex="1">
                    <mxGeometry y="43" width="134" height="27" as="geometry"/>
                </mxCell>
                <mxCell id="X_C08-fUslZUKMXBAiZJ-80" value="struct  &#10;Xiao Mi Factory" style="swimlane;fontStyle=1;align=center;verticalAlign=top;childLayout=stackLayout;horizontal=1;startSize=39;horizontalStack=0;resizeParent=1;resizeParentMax=0;resizeLast=0;collapsible=1;marginBottom=0;fillColor=#333333;" parent="1" vertex="1">
                    <mxGeometry x="205" y="-4844" width="157" height="70" as="geometry"/>
                </mxCell>
                <mxCell id="X_C08-fUslZUKMXBAiZJ-81" value="" style="text;strokeColor=#FFFFFF;fillColor=#333333;align=left;verticalAlign=top;spacingLeft=4;spacingRight=4;overflow=hidden;rotatable=0;points=[[0,0.5],[1,0.5]];portConstraint=eastwest;" parent="X_C08-fUslZUKMXBAiZJ-80" vertex="1">
                    <mxGeometry y="39" width="157" height="4" as="geometry"/>
                </mxCell>
                <mxCell id="X_C08-fUslZUKMXBAiZJ-82" value="+CreatePhone(): product" style="text;strokeColor=#FFFFFF;fillColor=#333333;align=left;verticalAlign=top;spacingLeft=4;spacingRight=4;overflow=hidden;rotatable=0;points=[[0,0.5],[1,0.5]];portConstraint=eastwest;strokeWidth=1;" parent="X_C08-fUslZUKMXBAiZJ-80" vertex="1">
                    <mxGeometry y="43" width="157" height="27" as="geometry"/>
                </mxCell>
                <mxCell id="X_C08-fUslZUKMXBAiZJ-86" value="interface&#10;abstruct phone factory&#10;" style="swimlane;fontStyle=1;align=center;verticalAlign=top;childLayout=stackLayout;horizontal=1;startSize=42;horizontalStack=0;resizeParent=1;resizeParentMax=0;resizeLast=0;collapsible=1;marginBottom=0;fillColor=#333333;" parent="1" vertex="1">
                    <mxGeometry x="343" y="-4703" width="204" height="73" as="geometry"/>
                </mxCell>
                <mxCell id="X_C08-fUslZUKMXBAiZJ-87" value="" style="text;strokeColor=#FFFFFF;fillColor=#333333;align=left;verticalAlign=top;spacingLeft=4;spacingRight=4;overflow=hidden;rotatable=0;points=[[0,0.5],[1,0.5]];portConstraint=eastwest;" parent="X_C08-fUslZUKMXBAiZJ-86" vertex="1">
                    <mxGeometry y="42" width="204" height="4" as="geometry"/>
                </mxCell>
                <mxCell id="X_C08-fUslZUKMXBAiZJ-88" value="+ CreatePhone():product" style="text;strokeColor=#FFFFFF;fillColor=#333333;align=left;verticalAlign=top;spacingLeft=4;spacingRight=4;overflow=hidden;rotatable=0;points=[[0,0.5],[1,0.5]];portConstraint=eastwest;strokeWidth=1;" parent="X_C08-fUslZUKMXBAiZJ-86" vertex="1">
                    <mxGeometry y="46" width="204" height="27" as="geometry"/>
                </mxCell>
                <mxCell id="X_C08-fUslZUKMXBAiZJ-77" value="struct&#10;Xiao Mi Phone" style="swimlane;fontStyle=1;align=center;verticalAlign=top;childLayout=stackLayout;horizontal=1;startSize=39;horizontalStack=0;resizeParent=1;resizeParentMax=0;resizeLast=0;collapsible=1;marginBottom=0;fillColor=#333333;" parent="1" vertex="1">
                    <mxGeometry x="524" y="-4988.5" width="134" height="70" as="geometry"/>
                </mxCell>
                <mxCell id="X_C08-fUslZUKMXBAiZJ-78" value="" style="text;strokeColor=#FFFFFF;fillColor=#333333;align=left;verticalAlign=top;spacingLeft=4;spacingRight=4;overflow=hidden;rotatable=0;points=[[0,0.5],[1,0.5]];portConstraint=eastwest;" parent="X_C08-fUslZUKMXBAiZJ-77" vertex="1">
                    <mxGeometry y="39" width="134" height="4" as="geometry"/>
                </mxCell>
                <mxCell id="X_C08-fUslZUKMXBAiZJ-79" value="+call()" style="text;strokeColor=#FFFFFF;fillColor=#333333;align=left;verticalAlign=top;spacingLeft=4;spacingRight=4;overflow=hidden;rotatable=0;points=[[0,0.5],[1,0.5]];portConstraint=eastwest;strokeWidth=1;" parent="X_C08-fUslZUKMXBAiZJ-77" vertex="1">
                    <mxGeometry y="43" width="134" height="27" as="geometry"/>
                </mxCell>
                <mxCell id="yA5RwDx7yH4Nu-wL2TZ7-66" value="&lt;span style=&quot;color: rgb(64 , 64 , 64) ; font-family: &amp;#34;lato&amp;#34; , , &amp;#34;helvetica neue&amp;#34; , &amp;#34;arial&amp;#34; , sans-serif ; font-size: 16px ; font-style: normal ; font-weight: 400 ; letter-spacing: normal ; text-align: left ; text-indent: 0px ; text-transform: none ; word-spacing: 0px ; background-color: rgb(252 , 252 , 252) ; float: none ; display: inline&quot;&gt;product:产品&lt;/span&gt;" style="text;whiteSpace=wrap;html=1;" parent="1" vertex="1">
                    <mxGeometry x="145" y="-5032" width="216" height="29" as="geometry"/>
                </mxCell>
                <mxCell id="X_C08-fUslZUKMXBAiZJ-83" value="struct&#10;Hua Wei Factory" style="swimlane;fontStyle=1;align=center;verticalAlign=top;childLayout=stackLayout;horizontal=1;startSize=39;horizontalStack=0;resizeParent=1;resizeParentMax=0;resizeLast=0;collapsible=1;marginBottom=0;fillColor=#333333;" parent="1" vertex="1">
                    <mxGeometry x="512.5" y="-4844" width="157" height="70" as="geometry"/>
                </mxCell>
                <mxCell id="X_C08-fUslZUKMXBAiZJ-84" value="" style="text;strokeColor=#FFFFFF;fillColor=#333333;align=left;verticalAlign=top;spacingLeft=4;spacingRight=4;overflow=hidden;rotatable=0;points=[[0,0.5],[1,0.5]];portConstraint=eastwest;" parent="X_C08-fUslZUKMXBAiZJ-83" vertex="1">
                    <mxGeometry y="39" width="157" height="4" as="geometry"/>
                </mxCell>
                <mxCell id="X_C08-fUslZUKMXBAiZJ-85" value="+CreatePhone(): product" style="text;strokeColor=#FFFFFF;fillColor=#333333;align=left;verticalAlign=top;spacingLeft=4;spacingRight=4;overflow=hidden;rotatable=0;points=[[0,0.5],[1,0.5]];portConstraint=eastwest;strokeWidth=1;" parent="X_C08-fUslZUKMXBAiZJ-83" vertex="1">
                    <mxGeometry y="43" width="157" height="27" as="geometry"/>
                </mxCell>
                <mxCell id="yA5RwDx7yH4Nu-wL2TZ7-68" value="&lt;span style=&quot;color: rgb(64 , 64 , 64) ; font-family: &amp;#34;lato&amp;#34; , , &amp;#34;helvetica neue&amp;#34; , &amp;#34;arial&amp;#34; , sans-serif ; font-size: 16px ; font-style: normal ; font-weight: 400 ; letter-spacing: normal ; text-align: left ; text-indent: 0px ; text-transform: none ; word-spacing: 0px ; background-color: rgb(252 , 252 , 252) ; float: none ; display: inline&quot;&gt;factory 工厂&lt;/span&gt;" style="text;whiteSpace=wrap;html=1;" parent="1" vertex="1">
                    <mxGeometry x="146" y="-4880" width="216" height="29" as="geometry"/>
                </mxCell>
                <mxCell id="yA5RwDx7yH4Nu-wL2TZ7-70" value="&lt;span style=&quot;color: rgb(64 , 64 , 64) ; font-family: &amp;#34;lato&amp;#34; , , &amp;#34;helvetica neue&amp;#34; , &amp;#34;arial&amp;#34; , sans-serif ; font-size: 16px ; font-style: normal ; font-weight: 400 ; letter-spacing: normal ; text-align: left ; text-indent: 0px ; text-transform: none ; word-spacing: 0px ; background-color: rgb(252 , 252 , 252) ; float: none ; display: inline&quot;&gt;abstruct product factory:抽象产品工厂&lt;/span&gt;" style="text;whiteSpace=wrap;html=1;" parent="1" vertex="1">
                    <mxGeometry x="197" y="-4729" width="276" height="29" as="geometry"/>
                </mxCell>
                <mxCell id="BlqpgNSsdKgZDyw_6oKY-83" value="未命名图层" parent="0"/>
            </root>
        </mxGraphModel>
    </diagram>
    <diagram id="tUVnFdVWg_YsPMdr1CFP" name="第 2 页">
        <mxGraphModel dx="801" dy="6480" grid="0" gridSize="10" guides="1" tooltips="1" connect="1" arrows="1" fold="1" page="1" pageScale="1" pageWidth="800" pageHeight="2000" background="#808080" math="0" shadow="0">
            <root>
                <mxCell id="DGEjD6WILjyIyvytDqbk-0"/>
                <mxCell id="DGEjD6WILjyIyvytDqbk-1" parent="DGEjD6WILjyIyvytDqbk-0"/>
                <mxCell id="gTTJJkQBvXd6DwSkDUOd-0" value="" style="shape=umlLifeline;participant=umlActor;perimeter=lifelinePerimeter;whiteSpace=wrap;html=1;container=1;collapsible=0;recursiveResize=0;verticalAlign=top;spacingTop=36;labelBackgroundColor=#ffffff;outlineConnect=0;strokeColor=#FFFF66;fillColor=#808080;align=center;strokeWidth=2;" parent="DGEjD6WILjyIyvytDqbk-1" vertex="1">
                    <mxGeometry x="151" y="-5509" width="20" height="185" as="geometry"/>
                </mxCell>
                <mxCell id="gTTJJkQBvXd6DwSkDUOd-1" value="" style="html=1;points=[];perimeter=orthogonalPerimeter;labelBackgroundColor=none;strokeColor=#FFFF66;strokeWidth=2;fillColor=#808080;align=center;" parent="gTTJJkQBvXd6DwSkDUOd-0" vertex="1">
                    <mxGeometry x="5" y="59" width="10" height="89" as="geometry"/>
                </mxCell>
                <mxCell id="gTTJJkQBvXd6DwSkDUOd-5" value=":HuaWei Factory" style="shape=umlLifeline;perimeter=lifelinePerimeter;whiteSpace=wrap;html=1;container=1;collapsible=0;recursiveResize=0;outlineConnect=0;labelBackgroundColor=none;strokeColor=#FFFF66;strokeWidth=2;fillColor=#808080;align=center;size=26;" parent="DGEjD6WILjyIyvytDqbk-1" vertex="1">
                    <mxGeometry x="312" y="-5509" width="120.25" height="181" as="geometry"/>
                </mxCell>
                <mxCell id="gTTJJkQBvXd6DwSkDUOd-14" value="" style="html=1;points=[];perimeter=orthogonalPerimeter;labelBackgroundColor=none;strokeColor=#FFFF66;strokeWidth=2;fillColor=#808080;align=center;" parent="gTTJJkQBvXd6DwSkDUOd-5" vertex="1">
                    <mxGeometry x="55.13" y="70" width="10" height="32" as="geometry"/>
                </mxCell>
                <mxCell id="gTTJJkQBvXd6DwSkDUOd-6" value="" style="endArrow=open;endFill=0;endSize=12;html=1;strokeColor=#FFFF66;strokeWidth=2;curved=1;" parent="DGEjD6WILjyIyvytDqbk-1" target="gTTJJkQBvXd6DwSkDUOd-5" edge="1">
                    <mxGeometry width="160" relative="1" as="geometry">
                        <mxPoint x="171" y="-5432" as="sourcePoint"/>
                        <mxPoint x="304.9999999999999" y="-5432" as="targetPoint"/>
                    </mxGeometry>
                </mxCell>
                <mxCell id="gTTJJkQBvXd6DwSkDUOd-7" value="huawei := CreatehwFactory()&#10;1.0 creat" style="text;align=center;fontStyle=1;verticalAlign=middle;spacingLeft=3;spacingRight=3;strokeColor=none;rotatable=0;points=[[0,0.5],[1,0.5]];portConstraint=eastwest;labelBackgroundColor=none;fillColor=#808080;spacing=-1;" parent="DGEjD6WILjyIyvytDqbk-1" vertex="1">
                    <mxGeometry x="254" y="-5457" width="20" height="10" as="geometry"/>
                </mxCell>
                <mxCell id="gTTJJkQBvXd6DwSkDUOd-10" value="huawei.Create().Call()&#10;2.0 call()" style="text;align=center;fontStyle=1;verticalAlign=middle;spacingLeft=3;spacingRight=3;strokeColor=none;rotatable=0;points=[[0,0.5],[1,0.5]];portConstraint=eastwest;labelBackgroundColor=none;fillColor=#808080;" parent="DGEjD6WILjyIyvytDqbk-1" vertex="1">
                    <mxGeometry x="211" y="-5398" width="80.5" height="13" as="geometry"/>
                </mxCell>
                <mxCell id="gTTJJkQBvXd6DwSkDUOd-13" value=": HuaWei&amp;nbsp;Phone&amp;nbsp;&amp;nbsp;" style="shape=umlLifeline;perimeter=lifelinePerimeter;whiteSpace=wrap;html=1;container=1;collapsible=0;recursiveResize=0;outlineConnect=0;labelBackgroundColor=none;strokeColor=#FFFF66;strokeWidth=2;fillColor=#808080;align=center;size=24;" parent="DGEjD6WILjyIyvytDqbk-1" vertex="1">
                    <mxGeometry x="516" y="-5433" width="113" height="108" as="geometry"/>
                </mxCell>
                <mxCell id="gTTJJkQBvXd6DwSkDUOd-31" value="" style="html=1;points=[];perimeter=orthogonalPerimeter;labelBackgroundColor=none;strokeColor=#FFFF66;strokeWidth=2;fillColor=#808080;align=center;" parent="gTTJJkQBvXd6DwSkDUOd-13" vertex="1">
                    <mxGeometry x="51.5" y="48" width="10" height="22" as="geometry"/>
                </mxCell>
                <mxCell id="gTTJJkQBvXd6DwSkDUOd-23" value="" style="shape=umlDestroy;whiteSpace=wrap;html=1;strokeWidth=2;align=left;" parent="DGEjD6WILjyIyvytDqbk-1" vertex="1">
                    <mxGeometry x="568" y="-5324" width="14" height="12" as="geometry"/>
                </mxCell>
                <mxCell id="gTTJJkQBvXd6DwSkDUOd-26" value="" style="endArrow=open;dashed=1;endFill=0;endSize=12;html=1;strokeColor=#FFFF66;strokeWidth=2;" parent="DGEjD6WILjyIyvytDqbk-1" edge="1">
                    <mxGeometry width="160" relative="1" as="geometry">
                        <mxPoint x="384" y="-5420.74" as="sourcePoint"/>
                        <mxPoint x="510" y="-5421" as="targetPoint"/>
                    </mxGeometry>
                </mxCell>
                <mxCell id="gTTJJkQBvXd6DwSkDUOd-29" value=" huawei.Create()&#10;1.1 creat" style="text;align=center;fontStyle=1;verticalAlign=middle;spacingLeft=3;spacingRight=3;strokeColor=none;rotatable=0;points=[[0,0.5],[1,0.5]];portConstraint=eastwest;labelBackgroundColor=none;fillColor=#808080;spacing=-1;" parent="DGEjD6WILjyIyvytDqbk-1" vertex="1">
                    <mxGeometry x="439" y="-5447" width="20" height="10" as="geometry"/>
                </mxCell>
                <mxCell id="gTTJJkQBvXd6DwSkDUOd-30" value="" style="endArrow=open;endFill=0;endSize=12;html=1;strokeColor=#FFFF66;strokeWidth=2;dashed=1;" parent="DGEjD6WILjyIyvytDqbk-1" target="gTTJJkQBvXd6DwSkDUOd-13" edge="1">
                    <mxGeometry width="160" relative="1" as="geometry">
                        <mxPoint x="166.99857142857144" y="-5372.000000000001" as="sourcePoint"/>
                        <mxPoint x="596.5699999999999" y="-5372.000000000001" as="targetPoint"/>
                    </mxGeometry>
                </mxCell>
            </root>
        </mxGraphModel>
    </diagram>
</mxfile>